<svg display="block" role="presentation" viewBox="0 0 24 24" xmlns="http://www.w3.org/2000/svg" id="2348838518"><path d="M 0.75 13.5 C 0.336 13.5 0 13.164 0 12.75 L 0 0.75 C 0 0.336 0.336 0 0.75 0 L 12.75 0 C 13.164 0 13.5 0.336 13.5 0.75 L 13.5 12.75 C 13.5 13.164 13.164 13.5 12.75 13.5 Z" fill-opacity="0" fill="rgb(0, 0, 0)" height="13.5px" transform="translate(6.75 3.75)" width="13.5px"></path><path d="M 6 6 L 5.999 0.001 L 0 0" fill="transparent" height="6px" stroke-dasharray="" stroke-linecap="round" stroke-linejoin="round" stroke-width="1.5" stroke="rgb(0, 0, 0)" transform="translate(5.25 12.75)" width="6px"></path><path d="M 8.25 13.5 L 12.75 13.5 C 13.164 13.5 13.5 13.164 13.5 12.75 L 13.5 0.75 C 13.5 0.336 13.164 0 12.75 0 L 0.75 0 C 0.336 0 0 0.336 0 0.75 L 0 5.25" fill="transparent" height="13.5px" stroke-dasharray="" stroke-linecap="round" stroke-linejoin="round" stroke-width="1.5" stroke="rgb(0, 0, 0)" transform="translate(6.75 3.75)" width="13.5px"></path><path d="M 0 7.5 L 7.5 0" fill="transparent" height="7.5px" stroke-dasharray="" stroke-linecap="round" stroke-linejoin="round" stroke-width="1.5" stroke="rgb(0, 0, 0)" transform="translate(3.75 12.75)" width="7.5px"></path></svg>