<svg display="block" role="presentation" viewBox="0 0 24 24" xmlns="http://www.w3.org/2000/svg" id="3950652552"><path d="M 5.645 11.627 L 8.27 9.002 L 10.145 10.877 L 13.9 7.122 L 9.229 2.418 C 6.803 -0.009 3.128 -0.681 0 0.731 L 5.27 6.002 L 2.645 8.627 Z" fill-opacity="0" fill="rgb(0, 0, 0)" height="11.62712518711266px" transform="translate(7.48 2.248)" width="13.900312499999998px"></path><path d="M 0 0 L 3 3" fill="transparent" height="3px" stroke-linecap="round" stroke-linejoin="round" stroke-width="1.5" stroke="rgb(0, 0, 0)" transform="translate(10.125 10.875)" width="3px"></path><path d="M 3.756 0 L 0 3.756" fill="transparent" height="3.755624999999995px" stroke-linecap="round" stroke-linejoin="round" stroke-width="1.5" stroke="rgb(0, 0, 0)" transform="translate(17.625 9.369)" width="3.755625000000009px"></path><path d="M 0.75 3.751 L 2.041 2.417 C 3.588 0.869 5.687 0 7.875 0 C 10.063 0 12.162 0.869 13.709 2.417 L 20.031 8.781 C 20.323 9.074 20.323 9.549 20.031 9.842 L 17.344 12.531 C 17.051 12.824 16.576 12.824 16.284 12.531 L 12.75 9.001 L 3.219 18.531 C 2.927 18.824 2.452 18.824 2.159 18.531 L 0.219 16.595 C -0.073 16.302 -0.073 15.827 0.219 15.534 L 9.75 6.001 L 4.479 0.73" fill="transparent" height="18.750984277532382px" stroke-linecap="round" stroke-linejoin="round" stroke-width="1.5" stroke="rgb(0, 0, 0)" transform="translate(3 2.249)" width="20.250242270365685px"></path></svg>