<svg display="block" role="presentation" viewBox="0 0 24 24" xmlns="http://www.w3.org/2000/svg" id="2681016227"><path d="M 7.828 2.587 L 3.347 0 L 0.548 0.739 C 0.359 0.787 0.198 0.908 0.1 1.076 C 0.001 1.244 -0.026 1.444 0.025 1.632 L 0.79 4.445 Z" fill-opacity="0" fill="rgb(0, 0, 0)" height="4.444687500000001px" transform="translate(3 6.055)" width="7.827643778244688px"></path><path d="M 0 1.598 L 4.48 4.184 L 7.63 3.353 L 6.865 0.54 C 6.755 0.15 6.352 -0.08 5.96 0.026 Z" fill-opacity="0" fill="rgb(0, 0, 0)" height="4.18441978450182px" transform="translate(11.87 3.001)" width="7.630312500000002px"></path><path d="M 0 0 L 16.5 0 L 16.5 0 L 16.5 8.25 C 16.5 8.664 16.164 9 15.75 9 L 0.75 9 C 0.336 9 0 8.664 0 8.25 L 0 0 Z" fill="transparent" height="9px" stroke-linecap="round" stroke-linejoin="round" stroke-width="1.5" stroke="rgb(0, 0, 0)" transform="translate(3.75 10.5)" width="16.5px"></path><path d="M 0.79 7.499 L 16.5 3.353 L 15.735 0.54 C 15.625 0.15 15.221 -0.08 14.829 0.026 L 0.548 3.793 C 0.359 3.841 0.198 3.963 0.1 4.131 C 0.001 4.299 -0.026 4.499 0.025 4.687 Z" fill="transparent" height="7.499419784501818px" stroke-linecap="round" stroke-linejoin="round" stroke-width="1.5" stroke="rgb(0, 0, 0)" transform="translate(3 3.001)" width="16.499518778244692px"></path><path d="M 0 0 L 4.48 2.587" fill="transparent" height="2.5874999999999986px" stroke-linecap="round" stroke-linejoin="round" stroke-width="1.5" stroke="rgb(0, 0, 0)" transform="translate(6.348 6.055)" width="4.480312500000004px"></path><path d="M 0 0 L 4.48 2.587" fill="transparent" height="2.5865624999999994px" stroke-linecap="round" stroke-linejoin="round" stroke-width="1.5" stroke="rgb(0, 0, 0)" transform="translate(11.87 4.598)" width="4.480312499999997px"></path></svg>