<svg display="block" role="presentation" viewBox="0 0 24 24" xmlns="http://www.w3.org/2000/svg" id="1666428281"><path d="M 0 2.25 C 0 1.007 1.007 0 2.25 0 C 3.493 0 4.5 1.007 4.5 2.25 C 4.5 3.493 3.493 4.5 2.25 4.5 C 1.007 4.5 0 3.493 0 2.25 Z" fill-opacity="0" fill="rgb(0, 0, 0)" height="4.5px" transform="translate(16.5 3.75)" width="4.5px"></path><path d="M 0 7.5 L 0 5.25 C 0 4.422 0.672 3.75 1.5 3.75 L 9.75 3.75 C 10.578 3.75 11.25 3.078 11.25 2.25 L 11.25 0" fill="transparent" height="7.5px" stroke-linecap="round" stroke-linejoin="round" stroke-width="1.5" stroke="rgb(0, 0, 0)" transform="translate(7.5 8.25)" width="11.25px"></path><path d="M 0 0 L 0 7.5" fill="transparent" height="7.5px" stroke-linecap="round" stroke-linejoin="round" stroke-width="1.5" stroke="rgb(0, 0, 0)" transform="translate(7.5 8.25)" width="1px"></path><path d="M 0 2.25 C 0 1.007 1.007 0 2.25 0 C 3.493 0 4.5 1.007 4.5 2.25 C 4.5 3.493 3.493 4.5 2.25 4.5 C 1.007 4.5 0 3.493 0 2.25 Z" fill="transparent" height="4.5px" stroke-linecap="round" stroke-linejoin="round" stroke-width="1.5" stroke="rgb(0, 0, 0)" transform="translate(5.25 3.75)" width="4.5px"></path><path d="M 0 2.25 C 0 1.007 1.007 0 2.25 0 C 3.493 0 4.5 1.007 4.5 2.25 C 4.5 3.493 3.493 4.5 2.25 4.5 C 1.007 4.5 0 3.493 0 2.25 Z" fill="transparent" height="4.5px" stroke-linecap="round" stroke-linejoin="round" stroke-width="1.5" stroke="rgb(0, 0, 0)" transform="translate(16.5 3.75)" width="4.5px"></path><path d="M 0 2.25 C 0 1.007 1.007 0 2.25 0 C 3.493 0 4.5 1.007 4.5 2.25 C 4.5 3.493 3.493 4.5 2.25 4.5 C 1.007 4.5 0 3.493 0 2.25 Z" fill="transparent" height="4.5px" stroke-linecap="round" stroke-linejoin="round" stroke-width="1.5" stroke="rgb(0, 0, 0)" transform="translate(5.25 15.75)" width="4.5px"></path></svg>